<svg xmlns="http://www.w3.org/2000/svg" version="1.0" width="1034.000000pt" height="380.000000pt" viewBox="0 0 1034.000000 380.000000" preserveAspectRatio="xMidYMid meet">

<g transform="translate(0.000000,380.000000) scale(0.100000,-0.100000)" fill="currentColor" stroke="none">
<path d="M2382 2849 c-139 -23 -287 -93 -390 -185 -114 -101 -221 -280 -262 -438 -30 -118 -28 -126 20 -126 l40 0 0 -106 c0 -279 120 -433 375 -481 266 -51 562 59 740 274 47 57 165 268 165 295 0 5 -20 8 -45 8 -25 0 -45 2 -45 3 0 2 9 39 20 83 25 96 28 272 6 351 -46 170 -167 279 -351 318 -77 16 -190 18 -273 4z m119 -330 c36 -19 69 -106 69 -179 0 -57 -18 -165 -35 -221 -6 -17 -1 -19 40 -19 43 0 46 -1 39 -22 -12 -41 -51 -112 -84 -153 -110 -139 -248 -124 -280 29 -7 33 -9 76 -6 98 l6 38 -45 0 c-42 0 -45 2 -45 26 0 43 30 145 64 219 37 79 100 154 148 178 38 19 100 22 129 6z"/>
<path d="M5830 2849 c-253 -42 -474 -209 -590 -444 -40 -81 -90 -238 -90 -281 0 -22 4 -24 46 -24 l46 0 -7 -67 c-14 -144 28 -282 112 -373 163 -177 458 -207 779 -80 122 48 118 43 159 220 20 85 38 163 41 173 5 15 -2 17 -60 17 -59 0 -74 -5 -158 -49 -51 -27 -117 -56 -147 -65 -169 -49 -287 20 -293 172 l-2 52 -50 0 -49 0 6 44 c23 169 158 339 290 365 90 19 214 -26 287 -104 21 -22 31 -25 96 -25 61 0 74 3 78 18 9 30 76 325 76 333 0 15 -73 55 -146 82 -120 43 -291 58 -424 36z"/>
<path d="M576 2793 c3 -27 20 -185 38 -353 l31 -305 43 -3 c32 -2 42 -7 42 -20 0 -26 50 -524 56 -549 4 -23 5 -23 212 -23 l208 0 162 288 c89 158 162 291 162 294 0 4 -15 8 -34 10 l-34 3 107 190 c59 105 148 263 198 353 l92 162 -222 0 -222 0 -71 -133 c-40 -72 -113 -210 -164 -305 -51 -94 -96 -169 -99 -166 -3 3 -17 139 -31 302 l-25 297 -227 3 -227 2 5 -47z"/>
<path d="M3261 2708 c-17 -73 -55 -236 -84 -363 l-53 -230 43 -3 c24 -2 43 -4 43 -6 0 -2 -103 -452 -125 -543 l-5 -23 219 0 219 0 31 133 c17 72 46 197 65 277 l33 145 -41 5 c-37 5 -41 7 -37 30 2 19 114 510 156 688 l5 22 -219 0 -219 0 -31 -132z"/>
<path d="M3935 2828 c-2 -7 -39 -164 -80 -348 -42 -184 -79 -343 -81 -352 -5 -15 2 -18 40 -18 31 0 46 -4 46 -13 0 -7 -27 -131 -60 -275 -33 -143 -60 -266 -60 -271 0 -8 78 -11 239 -11 234 0 406 11 486 31 171 43 339 154 451 300 43 57 124 204 124 228 0 6 -18 11 -45 11 -25 0 -45 3 -45 6 0 3 7 34 16 68 21 76 23 233 5 306 -37 148 -132 256 -272 308 -83 31 -219 42 -504 42 -195 0 -257 -3 -260 -12z m505 -334 c75 -32 102 -78 101 -175 0 -38 -7 -98 -16 -134 -8 -37 -15 -68 -15 -70 0 -2 20 -5 45 -7 l45 -3 -24 -51 c-52 -111 -140 -173 -258 -182 -38 -2 -68 -2 -68 1 0 3 11 53 25 111 14 58 25 110 25 116 0 5 -20 10 -45 10 -25 0 -45 2 -45 4 0 3 20 93 45 202 25 108 45 199 45 201 0 9 104 -9 140 -23z"/>
<path d="M6830 2825 c-18 -21 -400 -705 -400 -715 0 -5 20 -10 44 -12 l44 -3 -154 -275 c-85 -151 -154 -278 -154 -283 0 -4 98 -6 218 -5 l217 3 65 123 65 122 125 -2 125 -3 9 -122 8 -123 224 0 c173 0 224 3 224 13 0 6 -11 127 -25 267 -14 140 -25 263 -25 273 0 14 -9 17 -49 17 l-50 0 -6 43 c-6 50 -65 662 -65 683 0 21 -422 21 -440 -1z m135 -725 c25 0 45 -4 45 -10 0 -6 -27 -10 -61 -10 -35 0 -58 4 -54 9 3 6 -16 11 -44 13 l-49 3 56 140 57 140 3 -143 3 -142 44 0z"/>
<path d="M7745 2818 c-3 -7 -38 -160 -79 -339 -41 -180 -78 -338 -82 -353 -6 -25 -5 -26 36 -26 35 0 41 -3 36 -17 -7 -26 -126 -539 -126 -547 0 -3 207 -6 460 -6 l460 0 5 23 c3 12 19 80 35 150 17 71 30 135 30 143 0 12 -38 14 -240 14 l-240 0 5 23 c3 12 16 66 29 120 l23 97 -38 0 c-22 0 -39 4 -39 8 0 4 36 164 80 354 44 190 80 351 80 357 0 17 -429 15 -435 -1z"/>
<path d="M8736 2813 c-14 -47 -156 -681 -156 -696 0 -13 8 -17 35 -17 19 0 35 -3 35 -6 0 -8 -119 -521 -126 -547 -5 -16 20 -17 458 -15 l463 3 31 135 c16 74 33 147 37 163 l7 27 -240 0 c-212 0 -240 2 -240 16 0 9 9 50 19 92 36 146 37 132 -9 132 -37 0 -40 2 -35 23 3 12 39 168 80 347 42 179 78 333 81 343 5 16 -10 17 -215 17 -201 0 -220 -2 -225 -17z"/>
</g>
</svg>